<?xml version="1.0" encoding="utf-8"?>
<svg version="1.0" width="2500.000000pt" height="2500.000000pt" viewBox="0 0 2500.000000 2500.000000" preserveAspectRatio="xMidYMid meet" xmlns="http://www.w3.org/2000/svg">
  <g transform="translate(0.000000,2500.000000) scale(0.100000,-0.100000)" fill="#000000" stroke="none">
    <path d="M11915 24990 c-594 -35 -1076 -89 -1591 -181 -1568 -278 -3101 -868 -4449 -1712 -2326 -1456 -4111 -3646 -5079 -6230 -691 -1842 -937 -3811 -720 -5757 140 -1261 504 -2598 1020 -3745 137 -306 473 -952 597 -1150 268 -427 705 -694 1202 -735 112 -10 221 -5 580 25 409 34 976 100 1080 125 155 38 333 148 434 268 109 132 189 314 210 482 8 58 11 1141 11 3461 0 2972 2 3386 15 3456 77 406 370 720 774 831 l96 27 1000 3 c1077 3 1090 3 1250 -49 167 -53 293 -129 422 -252 178 -171 292 -400 323 -647 7 -57 10 -1187 10 -3443 0 -3124 1 -3359 17 -3353 44 17 372 101 568 146 187 43 235 57 321 100 237 115 408 316 486 570 l23 75 5 4300 5 4300 23 84 c60 223 156 387 316 539 166 158 359 250 591 282 56 8 382 10 1075 8 l995 -3 97 -27 c413 -113 721 -446 793 -857 13 -73 15 -599 15 -3978 0 -3112 3 -3894 13 -3890 55 21 873 375 912 394 78 39 164 105 236 179 111 116 170 222 218 394 l26 95 5 4745 5 4745 23 79 c109 374 370 650 717 759 151 47 192 49 1245 45 l985 -3 99 -27 c367 -101 643 -376 753 -749 l28 -94 3 -3877 c1 -2471 6 -3878 12 -3878 19 0 651 479 1020 774 745 595 1252 1047 1876 1670 526 526 849 885 1255 1392 225 282 291 378 369 539 200 412 229 858 84 1306 -129 403 -378 1000 -620 1489 -1485 3007 -4119 5286 -7324 6338 -1022 335 -1987 521 -3140 603 -197 14 -1117 20 -1315 9z" style="fill: rgb(39, 30, 67);"/>
    <path d="M24844 13213 c-2258 -3308 -5615 -6016 -9901 -7987 -2357 -1083 -4990 -1930 -7698 -2475 -598 -120 -1318 -246 -1835 -322 -124 -18 -228 -35 -233 -39 -8 -7 259 -196 513 -362 2303 -1505 5024 -2203 7765 -1993 2806 216 5462 1370 7510 3266 197 181 591 577 757 759 1313 1441 2279 3185 2813 5078 319 1133 480 2346 461 3477 -5 334 -26 739 -39 751 -3 3 -53 -66 -113 -153z" style="fill: rgb(39, 30, 67);"/>
  </g>
</svg>