<?xml version="1.0" encoding="utf-8"?>
<svg version="1.0" width="2174.000000pt" height="2500.000000pt" viewBox="0 0 2174.000000 2500.000000" preserveAspectRatio="xMidYMid meet" xmlns="http://www.w3.org/2000/svg">
  <g transform="translate(0.000000,2500.000000) scale(0.100000,-0.100000)" fill="#000000" stroke="none">
    <path d="M10455 24804 c-923 -464 -2835 -1458 -3875 -2012 -834 -444 -1210 -655 -1210 -677 0 -16 95 -74 320 -197 779 -427 2755 -1420 3230 -1624 105 -45 139 -55 166 -51 89 15 653 286 1524 734 l215 111 899 -463 899 -462 151 68 c3484 1564 3746 1686 3746 1735 0 8 -24 30 -54 49 -146 93 -845 468 -2696 1445 -1471 776 -1956 1034 -2325 1235 -324 176 -543 284 -587 291 -28 4 -92 -25 -403 -182z" style="fill: rgb(39, 30, 67);"/>
    <path d="M3185 20991 c-249 -90 -983 -453 -2340 -1154 l-840 -434 0 -2989 c1 -2814 9 -3833 32 -4000 6 -43 7 -45 32 -39 65 16 931 395 2459 1075 l862 385 0 1847 c0 1017 2 1848 4 1848 2 0 174 -93 382 -206 465 -253 2045 -1111 2784 -1512 300 -162 550 -295 555 -295 12 0 495 218 1230 556 270 123 726 330 1015 460 683 306 804 361 1050 483 235 117 245 123 236 150 -27 87 -723 479 -2331 1316 -2406 1252 -4878 2485 -5058 2522 -12 3 -44 -3 -72 -13z" style="fill: rgb(39, 30, 67);"/>
    <path d="M18460 20717 c-897 -388 -2429 -1082 -3130 -1416 -316 -151 -453 -222 -458 -238 -6 -22 329 -228 913 -560 165 -94 464 -264 665 -378 539 -307 945 -553 964 -583 8 -14 -150 -98 -471 -252 -402 -192 -495 -235 -3103 -1412 -5743 -2594 -11381 -5144 -12450 -5631 -1100 -501 -1223 -560 -1250 -595 -68 -86 -92 -361 -110 -1267 -12 -613 -30 -2205 -30 -2631 l0 -291 503 -256 c276 -141 899 -458 1385 -705 l882 -450 1168 528 c1262 570 1411 638 1782 813 662 311 890 429 890 458 0 37 -146 131 -520 334 -311 169 -484 266 -915 515 -550 317 -793 448 -917 495 -26 10 -64 32 -85 50 l-37 32 40 26 c154 97 959 471 2379 1107 1467 657 3028 1359 5740 2585 941 425 2295 1037 3010 1360 3355 1516 4848 2193 5948 2696 l357 164 0 232 c0 128 9 1070 20 2094 12 1024 19 1862 18 1864 -15 9 -1445 740 -1873 956 -648 327 -947 470 -995 475 -28 3 -95 -22 -320 -119z" style="fill: rgb(39, 30, 67);"/>
    <path d="M21640 12622 c-51 -17 -228 -96 -440 -197 -333 -159 -520 -245 -1185 -544 -313 -141 -812 -367 -1107 -501 l-538 -245 0 -405 c-1 -615 -18 -2046 -30 -2390 -17 -509 -40 -833 -60 -854 -22 -22 -1250 604 -2630 1341 -698 373 -900 472 -1041 507 -116 29 -165 20 -346 -65 -176 -83 -657 -298 -1513 -679 -1325 -589 -1700 -762 -1700 -784 1 -21 129 -99 560 -338 909 -505 1758 -953 4840 -2553 1004 -521 1859 -965 1900 -987 l76 -40 844 437 c1241 642 1655 862 2065 1096 241 137 317 188 332 219 38 81 57 1546 50 3925 -6 1792 -15 2512 -37 2884 -5 91 -13 168 -17 172 -5 3 -15 4 -23 1z" style="fill: rgb(39, 30, 67);"/>
    <path d="M12305 4306 c-423 -183 -853 -369 -955 -413 -334 -145 -427 -168 -569 -139 -123 25 -190 54 -721 316 -717 353 -905 429 -1075 437 l-90 5 -237 -106 c-131 -58 -659 -296 -1175 -530 -1667 -754 -1995 -896 -2067 -896 -19 0 -44 -8 -56 -18 -22 -18 -22 -19 -6 -50 60 -116 618 -437 1911 -1100 604 -309 3564 -1802 3574 -1802 4 0 246 117 537 261 806 398 2156 1061 2865 1407 1683 822 2345 1158 2336 1186 -2 6 -80 50 -173 98 -703 367 -3295 1678 -3315 1677 -8 0 -360 -150 -784 -333z" style="fill: rgb(39, 30, 67);"/>
  </g>
</svg>